Coordinates
version=1
nRows=14
nColumns=36
inDegrees=yes

Units are S.I. units (second, meters, Newtons, ...)
If the header above contains a line with 'inDegrees', this indicates whether rotational values are in degrees (yes) or radians (no).

endheader
time	pelvis_tilt	pelvis_list	pelvis_rotation	pelvis_tx	pelvis_ty	pelvis_tz	hip_flexion_r	hip_adduction_r	hip_rotation_r	knee_angle_r	knee_angle_r_beta	ankle_angle_r	subtalar_angle_r	mtp_angle_r	hip_flexion_l	hip_adduction_l	hip_rotation_l	knee_angle_l	knee_angle_l_beta	ankle_angle_l	subtalar_angle_l	mtp_angle_l	lumbar_extension	lumbar_bending	lumbar_rotation	arm_flex_r	arm_add_r	arm_rot_r	elbow_flex_r	pro_sup_r	arm_flex_l	arm_add_l	arm_rot_l	elbow_flex_l	pro_sup_l
      2.46000000	    -22.38729318	     -3.02817643	     -0.86235189	     -0.30410033	      0.67638324	     -0.59199556	     75.81713111	     -3.50047943	      3.90221137	     89.78274142	      1.56700445	     25.84792471	    -24.11868772	     -7.49721566	     78.41812282	     -8.10621531	     10.64958862	     91.65842819	      1.59974136	     28.48276702	    -11.76413981	     -7.49721566	    -14.93928942	      2.83012229	     -0.83015114	     86.94642954	    -22.20918017	     19.20374990	     59.93389447	    102.55401046	     90.56240564	    -20.19238886	     15.18760683	     49.02600834	     90.96607526
      2.47000000	    -22.16920497	     -3.24317419	     -0.68846984	     -0.29982915	      0.68638454	     -0.59206380	     74.13263819	     -2.99157177	      3.96333142	     88.02329120	      1.53629625	     24.74866151	    -25.28517673	     -7.49731180	     76.81440760	     -7.94315968	     10.85225784	     89.98075997	      1.57046052	     27.87748948	    -12.14544479	     -7.49731180	    -14.15727782	      3.03239912	     -0.96611567	     94.65690516	    -23.15226724	     23.96943815	     61.47773224	    102.32790688	     97.99373214	    -21.07429839	     20.73268731	     50.21904761	     90.17728428
      2.48000000	    -22.00798868	     -3.41647245	     -0.47671637	     -0.29512354	      0.69764006	     -0.59185120	     72.34861992	     -2.50940594	      4.07250792	     85.98852057	      1.50078280	     22.61546861	    -27.17524839	     -7.49792058	     75.09651046	     -7.82388053	     10.88413066	     87.93184264	      1.53470017	     26.73293365	    -12.95240645	     -7.49792058	    -13.33309955	      3.13440272	     -1.23264710	    102.18891822	    -23.62990136	     28.25864890	     62.95521145	     97.44044029	    105.80639867	    -21.70486135	     26.95087546	     51.26111204	     82.41345978
      2.49000000	    -21.86648597	     -3.72333192	     -0.24622858	     -0.28987525	      0.71007213	     -0.59192452	     70.35015633	     -2.08408594	      4.06334311	     83.66554220	      1.46023918	     21.82766048	    -27.45490657	     -7.49799502	     73.27561066	     -7.80459629	     10.94659285	     85.65560198	      1.49497228	     25.88262355	    -13.49634996	     -7.49799502	    -12.52678108	      3.49813100	     -1.32818437	    110.37274203	    -24.21984943	     33.91928874	     63.19344457	     97.14374374	    113.23909085	    -21.66729698	     31.40675439	     51.10517248	     82.03306308
      2.50000000	    -21.67046864	     -3.89904281	      0.08897363	     -0.28418679	      0.72377416	     -0.59200188	     68.18665725	     -1.86717675	      4.05094566	     81.07299126	      1.41499063	     19.96027387	    -28.59189696	     -7.49822748	     71.18617003	     -7.65470003	     10.92110136	     83.04630535	      1.44943146	     24.51359965	    -14.24493696	     -7.49822748	    -11.79889431	      3.66704669	     -1.80999750	    117.90532796	    -23.79994971	     37.85450110	     62.89877396	     94.92609555	    121.18401775	    -21.81494942	     37.71008760	     49.88731685	     80.30908185
      2.51000000	    -21.50695012	     -4.08999049	      0.42891136	     -0.27792469	      0.73865763	     -0.59192886	     65.85693916	     -1.63920774	      4.02337508	     78.14955706	      1.36396708	     18.25315012	    -29.25744444	     -7.49827747	     68.95491436	     -7.57076709	     10.92243911	     80.13959915	      1.39869987	     23.09409696	    -14.75009056	     -7.49827747	    -10.98703937	      3.82822887	     -2.38422813	    124.31557841	    -22.33313793	     38.77359069	     61.66957626	     95.18671992	    128.91644809	    -21.42164587	     43.57715360	     47.28458260	     79.72297471
      2.52000000	    -21.31061707	     -4.22364510	      0.83090253	     -0.27123308	      0.75484010	     -0.59211150	     63.38894263	     -1.61028290	      3.85578120	     74.94679537	      1.30806834	     16.21640107	    -29.90604509	     -7.49924359	     66.51630954	     -7.41799336	     10.87436970	     76.90626992	      1.34226763	     21.34189170	    -15.31018799	     -7.49924359	    -10.14697018	      3.82086155	     -3.28065792	    129.27532349	    -19.83884065	     35.92506120	     59.72615485	     93.14697942	    136.20102919	    -20.13160024	     48.46986314	     44.13469065	     70.08688846
      2.53000000	    -21.11863267	     -4.47047785	      1.17721163	     -0.26411752	      0.77234227	     -0.59265778	     60.76255659	     -1.59087094	      3.43186029	     71.34006136	      1.24511896	     13.70922506	    -30.37186823	     -7.49925862	     63.96169035	     -7.40780879	     10.85757087	     73.35884269	      1.28035334	     19.25757288	    -15.88327121	     -7.49925862	     -9.30647011	      3.81448040	     -3.64748389	    135.16744797	    -19.19554823	     38.09581694	     57.36896227	     92.29373268	    141.81769768	    -17.17467231	     48.14163919	     39.08518118	     68.55880887
      2.54000000	    -20.82616817	     -4.78017631	      1.51141675	     -0.25657220	      0.79128212	     -0.59348059	     57.84009559	     -1.60220223	      2.83164885	     67.30463028	      1.17468740	     10.91948653	    -30.71564773	     -7.49926905	     61.15082769	     -7.50459081	     10.83676628	     69.43856786	      1.21193164	     16.80104012	    -16.43872798	     -7.49926905	     -8.61439106	      4.02807210	     -3.79314137	    142.39010646	    -19.48030086	     46.75278666	     54.11332022	     91.31749127	    146.66355819	    -14.50638838	     47.01264252	     34.35488018	     66.83133278
      2.55000000	    -20.48922977	     -5.00495509	      1.78355151	     -0.24865268	      0.81160583	     -0.59408359	     54.74293268	     -1.66077789	      2.20411540	     62.90327461	      1.09786925	      7.55300418	    -30.81676706	     -7.49964714	     58.04688184	     -7.69306356	     10.69858353	     65.03304608	      1.13504078	     14.01946801	    -16.80116750	     -7.49964714	     -7.88631894	      4.45298657	     -4.50186536	    147.83202971	    -17.66860141	     52.09502743	     50.91248514	     76.87059231	    152.21775104	    -13.79601976	     54.86791211	     28.56657854	     68.90837754
      2.56000000	    -19.91346708	     -5.18101799	      2.05973535	     -0.24013444	      0.83376817	     -0.59475894	     51.17120530	     -1.80764616	      1.35823747	     57.95020676	      1.01142191	      3.66353784	    -30.80482041	     -7.49967089	     54.40336138	     -7.94686836	     10.42007379	     60.06446250	      1.04832263	     10.65018200	    -17.00722774	     -7.49967089	     -7.26129132	      5.03407267	     -5.27982995	    151.65719116	    -15.20939253	     54.01832179	     46.70922033	     78.68132478	    156.50367285	    -13.51758285	     62.10474125	     23.75337709	     68.91518784
      2.57000000	    -19.16620550	     -5.38735280	      2.35658518	     -0.23114223	      0.85767397	     -0.59567035	     47.12632456	     -1.95822763	      0.25677065	     52.29622270	      0.91274127	     -1.27028905	    -30.60459757	     -7.49967262	     50.33774340	     -8.29325059	     10.03554226	     54.54492802	      0.95198858	      6.61893414	    -16.99804617	     -7.49967262	     -6.59987227	      5.68148421	     -5.82838425	    154.44254662	    -13.09878465	     55.43642673	     43.16243813	     79.03182496	    158.87838640	    -13.57004343	     64.39802967	     21.09491576	     68.96241067
      2.58000000	    -18.13881196	     -5.54032626	      2.65216320	     -0.22176352	      0.88335283	     -0.59688808	     42.50987046	     -2.13884747	     -0.98867090	     45.93862023	      0.80178018	     -7.04349535	    -29.83207168	     -7.49967464	     45.68662301	     -8.70619776	      9.39802340	     48.37157238	      0.84424320	      1.86777548	    -16.65574407	     -7.49967464	     -6.09571869	      6.08603878	     -6.24172119	    156.23264634	    -11.98825046	     56.82480061	     40.90392021	     79.04312042	    160.45351233	    -13.62279595	     67.05200899	     18.92694640	     69.24724701
      2.59000000	    -16.84656422	     -5.57784198	      2.94414052	     -0.21203895	      0.91052435	     -0.59826621	     37.36335200	     -2.38417210	     -2.38871916	     38.88875980	      0.67873690	    -13.38089853	    -28.16484242	     -7.49970765	     40.44320102	     -9.15221222	      8.29763483	     41.44693347	      0.72338545	     -3.59059493	    -15.60111595	     -7.49970765	     -5.79034256	      6.21716132	     -6.66788273	    156.95386208	    -11.73996222	     57.16196162	     40.28976878	     77.63936423	    161.71337378	    -13.72206348	     72.28811083	     16.54583879	     69.45152553
